<svg xmlns="http://www.w3.org/2000/svg" xmlns:xlink="http://www.w3.org/1999/xlink" width="500" zoomAndPan="magnify" viewBox="0 0 375 374.999991" height="500" preserveAspectRatio="xMidYMid meet" version="1.0"><defs><g/><clipPath id="63a4077a03"><path d="M 18.246094 19.546875 L 356.496094 19.546875 L 356.496094 357.796875 L 18.246094 357.796875 Z M 18.246094 19.546875 " clip-rule="nonzero"/></clipPath><clipPath id="8266f9a3c7"><path d="M 164 94 L 316 94 L 316 297 L 164 297 Z M 164 94 " clip-rule="nonzero"/></clipPath><clipPath id="d202397153"><path d="M 162.226562 270.617188 L 271.675781 93.152344 L 317 121.105469 L 207.550781 298.570312 Z M 162.226562 270.617188 " clip-rule="nonzero"/></clipPath><clipPath id="c23bcba240"><path d="M 162.226562 270.617188 L 271.675781 93.152344 L 317 121.105469 L 207.550781 298.570312 Z M 162.226562 270.617188 " clip-rule="nonzero"/></clipPath><clipPath id="c0dbff1ee0"><path d="M 116 78.035156 L 200.582031 78.035156 L 200.582031 163 L 116 163 Z M 116 78.035156 " clip-rule="nonzero"/></clipPath><clipPath id="a4c87f9bd9"><path d="M 60.332031 135 L 127 135 L 127 202 L 60.332031 202 Z M 60.332031 135 " clip-rule="nonzero"/></clipPath><clipPath id="0a7e26b8d5"><path d="M 129 175 L 176 175 L 176 221.285156 L 129 221.285156 Z M 129 175 " clip-rule="nonzero"/></clipPath></defs><g clip-path="url(#63a4077a03)"><path fill="#1583d3" d="M 187.5 358.054688 C 93.992188 358.054688 18.246094 281.785156 18.246094 188.800781 C 18.246094 95.8125 93.992188 19.546875 187.5 19.546875 C 281.007812 19.546875 356.753906 95.292969 356.753906 188.800781 C 356.753906 282.308594 280.484375 358.054688 187.5 358.054688 Z M 187.5 29.992188 C 99.738281 29.992188 28.691406 101.039062 28.691406 188.800781 C 28.691406 276.5625 99.738281 347.605469 187.5 347.605469 C 275.261719 347.605469 346.304688 276.5625 346.304688 188.800781 C 346.304688 101.039062 274.738281 29.992188 187.5 29.992188 Z M 187.5 29.992188 " fill-opacity="1" fill-rule="nonzero"/></g><g fill="#1583d3" fill-opacity="1"><g transform="translate(39.765266, 240.035843)"><g><path d="M 5.390625 11.375 C 4.460938 9.550781 3.941406 7.804688 3.828125 6.140625 C 3.710938 4.472656 4 2.992188 4.6875 1.703125 C 5.382812 0.421875 6.429688 -0.570312 7.828125 -1.28125 L 8.890625 -1.828125 C 9.210938 -1.992188 9.457031 -1.914062 9.625 -1.59375 L 10.453125 0.046875 C 10.617188 0.367188 10.539062 0.613281 10.21875 0.78125 L 9.3125 1.25 C 7.882812 1.96875 7.023438 3.160156 6.734375 4.828125 C 6.441406 6.503906 6.8125 8.359375 7.84375 10.390625 C 8.820312 12.316406 9.972656 13.570312 11.296875 14.15625 C 12.628906 14.75 13.972656 14.703125 15.328125 14.015625 C 16.210938 13.566406 16.847656 12.945312 17.234375 12.15625 C 17.628906 11.375 17.859375 10.367188 17.921875 9.140625 C 17.992188 7.910156 17.941406 6.21875 17.765625 4.0625 C 17.566406 1.789062 17.484375 -0.0078125 17.515625 -1.34375 C 17.546875 -2.675781 17.84375 -3.890625 18.40625 -4.984375 C 18.96875 -6.078125 19.925781 -6.96875 21.28125 -7.65625 C 23.394531 -8.738281 25.410156 -8.835938 27.328125 -7.953125 C 29.242188 -7.066406 30.859375 -5.332031 32.171875 -2.75 C 33.578125 0.0078125 34.035156 2.523438 33.546875 4.796875 C 33.054688 7.066406 31.734375 8.753906 29.578125 9.859375 L 28.859375 10.21875 C 28.535156 10.382812 28.289062 10.300781 28.125 9.96875 L 27.28125 8.3125 C 27.113281 7.988281 27.191406 7.742188 27.515625 7.578125 L 28.078125 7.296875 C 29.535156 6.554688 30.441406 5.382812 30.796875 3.78125 C 31.148438 2.175781 30.800781 0.347656 29.75 -1.703125 C 28.84375 -3.492188 27.785156 -4.671875 26.578125 -5.234375 C 25.378906 -5.804688 24.085938 -5.742188 22.703125 -5.046875 C 21.796875 -4.578125 21.164062 -3.960938 20.8125 -3.203125 C 20.46875 -2.441406 20.296875 -1.515625 20.296875 -0.421875 C 20.296875 0.660156 20.394531 2.269531 20.59375 4.40625 C 20.78125 6.625 20.832031 8.460938 20.75 9.921875 C 20.664062 11.390625 20.320312 12.703125 19.71875 13.859375 C 19.125 15.015625 18.148438 15.9375 16.796875 16.625 C 14.722656 17.6875 12.65625 17.769531 10.59375 16.875 C 8.539062 15.976562 6.804688 14.144531 5.390625 11.375 Z M 5.390625 11.375 "/></g></g></g><g fill="#1583d3" fill-opacity="1"><g transform="translate(52.511012, 264.606736)"><g><path d="M 13.015625 17.234375 C 12.835938 16.984375 12.84375 16.726562 13.03125 16.46875 L 16.125 12.015625 C 16.1875 11.898438 16.191406 11.8125 16.140625 11.75 L 8.546875 1.703125 C 8.492188 1.628906 8.40625 1.609375 8.28125 1.640625 L 3.1875 3.4375 C 2.875 3.550781 2.628906 3.484375 2.453125 3.234375 L 1.21875 1.625 C 1.101562 1.46875 1.066406 1.320312 1.109375 1.1875 C 1.148438 1.050781 1.265625 0.941406 1.453125 0.859375 L 29.78125 -8.90625 C 30.082031 -9.019531 30.328125 -8.953125 30.515625 -8.703125 L 32.140625 -6.546875 C 32.328125 -6.296875 32.320312 -6.046875 32.125 -5.796875 L 15.046875 18.828125 C 15.003906 18.898438 14.953125 18.960938 14.890625 19.015625 C 14.796875 19.078125 14.6875 19.09375 14.5625 19.0625 C 14.4375 19.03125 14.332031 18.957031 14.25 18.84375 Z M 11.140625 0.640625 C 10.972656 0.722656 10.929688 0.816406 11.015625 0.921875 L 17.578125 9.609375 C 17.671875 9.734375 17.773438 9.722656 17.890625 9.578125 L 28.359375 -5.21875 C 28.429688 -5.3125 28.453125 -5.378906 28.421875 -5.421875 C 28.390625 -5.472656 28.320312 -5.472656 28.21875 -5.421875 Z M 11.140625 0.640625 "/></g></g></g><g fill="#1583d3" fill-opacity="1"><g transform="translate(69.995859, 287.399142)"><g><path d="M 9.890625 9.453125 C 8.429688 8.128906 7.40625 6.664062 6.8125 5.0625 C 6.21875 3.457031 6.085938 1.84375 6.421875 0.21875 C 6.753906 -1.394531 7.554688 -2.898438 8.828125 -4.296875 L 22.21875 -19.03125 C 22.46875 -19.300781 22.726562 -19.316406 23 -19.078125 L 24.421875 -17.796875 C 24.679688 -17.546875 24.6875 -17.285156 24.4375 -17.015625 L 11 -2.21875 C 9.644531 -0.738281 9.023438 0.894531 9.140625 2.6875 C 9.265625 4.488281 10.101562 6.097656 11.65625 7.515625 C 13.21875 8.941406 14.898438 9.625 16.703125 9.5625 C 18.503906 9.507812 20.082031 8.742188 21.4375 7.265625 L 34.875 -7.53125 C 35.125 -7.800781 35.382812 -7.8125 35.65625 -7.5625 L 37.078125 -6.28125 C 37.347656 -6.03125 37.359375 -5.769531 37.109375 -5.5 L 23.71875 9.234375 C 22.445312 10.628906 21.023438 11.570312 19.453125 12.0625 C 17.878906 12.5625 16.257812 12.585938 14.59375 12.140625 C 12.9375 11.703125 11.367188 10.804688 9.890625 9.453125 Z M 31.484375 -16.09375 C 31.316406 -16.25 31.25 -16.394531 31.28125 -16.53125 C 31.3125 -16.675781 31.441406 -16.78125 31.671875 -16.84375 L 36.390625 -18.453125 C 36.640625 -18.554688 36.875 -18.507812 37.09375 -18.3125 L 38.453125 -17.078125 C 38.660156 -16.890625 38.6875 -16.710938 38.53125 -16.546875 C 38.4375 -16.441406 38.335938 -16.378906 38.234375 -16.359375 L 33.296875 -14.953125 C 33.003906 -14.878906 32.769531 -14.925781 32.59375 -15.09375 Z M 31.484375 -16.09375 "/></g></g></g><g fill="#1583d3" fill-opacity="1"><g transform="translate(92.775917, 307.648856)"><g><path d="M 3.84375 2.359375 C 3.53125 2.171875 3.46875 1.921875 3.65625 1.609375 L 18.5625 -22.65625 C 18.757812 -22.976562 19.015625 -23.046875 19.328125 -22.859375 L 27.734375 -17.703125 C 30.109375 -16.242188 31.613281 -14.457031 32.25 -12.34375 C 32.882812 -10.226562 32.546875 -8.097656 31.234375 -5.953125 L 24.296875 5.34375 C 22.984375 7.488281 21.238281 8.75 19.0625 9.125 C 16.894531 9.507812 14.625 8.972656 12.25 7.515625 Z M 7.421875 1.234375 C 7.347656 1.347656 7.375 1.445312 7.5 1.53125 L 13.734375 5.359375 C 15.296875 6.316406 16.816406 6.625 18.296875 6.28125 C 19.773438 5.9375 20.988281 5 21.9375 3.46875 L 28.453125 -7.15625 C 29.410156 -8.71875 29.710938 -10.238281 29.359375 -11.71875 C 29.015625 -13.195312 28.050781 -14.421875 26.46875 -15.390625 L 20.234375 -19.21875 C 20.109375 -19.300781 20.007812 -19.28125 19.9375 -19.15625 Z M 7.421875 1.234375 "/></g></g></g><g fill="#1583d3" fill-opacity="1"><g transform="translate(117.730354, 322.624717)"><g><path d="M 31.5 -17.296875 C 31.375 -16.953125 31.132812 -16.847656 30.78125 -16.984375 L 16.453125 -22.546875 C 16.316406 -22.597656 16.222656 -22.554688 16.171875 -22.421875 L 12.421875 -12.78125 C 12.367188 -12.644531 12.410156 -12.550781 12.546875 -12.5 L 22.546875 -8.625 C 22.890625 -8.488281 23 -8.25 22.875 -7.90625 L 22.3125 -6.484375 C 22.1875 -6.140625 21.953125 -6.035156 21.609375 -6.171875 L 11.609375 -10.046875 C 11.472656 -10.097656 11.378906 -10.0625 11.328125 -9.9375 L 7.515625 -0.125 C 7.472656 0 7.519531 0.0859375 7.65625 0.140625 L 21.984375 5.703125 C 22.335938 5.835938 22.445312 6.078125 22.3125 6.421875 L 21.765625 7.84375 C 21.628906 8.1875 21.382812 8.289062 21.03125 8.15625 L 4.203125 1.625 C 3.867188 1.5 3.769531 1.265625 3.90625 0.921875 L 14.1875 -25.625 C 14.320312 -25.976562 14.554688 -26.09375 14.890625 -25.96875 L 31.71875 -19.4375 C 32.070312 -19.300781 32.179688 -19.054688 32.046875 -18.703125 Z M 31.5 -17.296875 "/></g></g></g><g fill="#1583d3" fill-opacity="1"><g transform="translate(143.58366, 331.974809)"><g/></g></g><g fill="#1583d3" fill-opacity="1"><g transform="translate(153.731522, 335.095847)"><g><path d="M 4.484375 0.546875 C 4.117188 0.503906 3.957031 0.300781 4 -0.0625 L 7.453125 -28.328125 C 7.492188 -28.703125 7.695312 -28.867188 8.0625 -28.828125 L 9.953125 -28.59375 C 10.210938 -28.5625 10.410156 -28.40625 10.546875 -28.125 L 21.859375 -3.59375 C 21.898438 -3.507812 21.945312 -3.46875 22 -3.46875 C 22.0625 -3.46875 22.101562 -3.523438 22.125 -3.640625 L 24.875 -26.203125 C 24.914062 -26.578125 25.117188 -26.742188 25.484375 -26.703125 L 27.375 -26.46875 C 27.726562 -26.425781 27.882812 -26.21875 27.84375 -25.84375 L 24.390625 2.421875 C 24.347656 2.785156 24.148438 2.945312 23.796875 2.90625 L 21.90625 2.671875 C 21.65625 2.640625 21.457031 2.488281 21.3125 2.21875 L 9.984375 -22.40625 C 9.929688 -22.5 9.878906 -22.539062 9.828125 -22.53125 C 9.773438 -22.53125 9.738281 -22.472656 9.71875 -22.359375 L 6.984375 0.296875 C 6.941406 0.660156 6.738281 0.820312 6.375 0.78125 Z M 4.484375 0.546875 "/></g></g></g><g fill="#1583d3" fill-opacity="1"><g transform="translate(185.111645, 338.496246)"><g><path d="M 21.546875 -1.46875 C 21.242188 -1.445312 21.035156 -1.585938 20.921875 -1.890625 L 18.890625 -6.921875 C 18.828125 -7.035156 18.753906 -7.085938 18.671875 -7.078125 L 6.109375 -6.21875 C 6.015625 -6.21875 5.945312 -6.15625 5.90625 -6.03125 L 4.609375 -0.78125 C 4.535156 -0.46875 4.347656 -0.300781 4.046875 -0.28125 L 2.03125 -0.140625 C 1.832031 -0.128906 1.6875 -0.175781 1.59375 -0.28125 C 1.507812 -0.382812 1.484375 -0.539062 1.515625 -0.75 L 8.859375 -29.796875 C 8.910156 -30.117188 9.09375 -30.289062 9.40625 -30.3125 L 12.109375 -30.484375 C 12.421875 -30.515625 12.632812 -30.375 12.75 -30.0625 L 23.984375 -2.28125 C 24.023438 -2.21875 24.046875 -2.144531 24.046875 -2.0625 C 24.054688 -1.945312 24.015625 -1.84375 23.921875 -1.75 C 23.828125 -1.664062 23.707031 -1.617188 23.5625 -1.609375 Z M 6.640625 -8.96875 C 6.617188 -8.789062 6.675781 -8.707031 6.8125 -8.71875 L 17.65625 -9.453125 C 17.820312 -9.460938 17.867188 -9.554688 17.796875 -9.734375 L 11.15625 -26.59375 C 11.113281 -26.707031 11.0625 -26.757812 11 -26.75 C 10.945312 -26.75 10.914062 -26.691406 10.90625 -26.578125 Z M 6.640625 -8.96875 "/></g></g></g><g fill="#1583d3" fill-opacity="1"><g transform="translate(212.579631, 335.998012)"><g/></g></g><g fill="#1583d3" fill-opacity="1"><g transform="translate(222.917381, 334.451976)"><g><path d="M 20.34375 -6.453125 C 20.039062 -6.359375 19.785156 -6.425781 19.578125 -6.65625 L 9.75 -17.203125 C 9.65625 -17.285156 9.554688 -17.3125 9.453125 -17.28125 L 2.71875 -15.140625 C 2.582031 -15.097656 2.539062 -15.007812 2.59375 -14.875 L 6.46875 -2.625 C 6.582031 -2.28125 6.46875 -2.050781 6.125 -1.9375 L 4.296875 -1.359375 C 3.953125 -1.253906 3.722656 -1.375 3.609375 -1.71875 L -5.015625 -28.921875 C -5.128906 -29.265625 -5.015625 -29.488281 -4.671875 -29.59375 L 5.65625 -32.875 C 7.96875 -33.613281 10.0625 -33.492188 11.9375 -32.515625 C 13.8125 -31.546875 15.113281 -29.90625 15.84375 -27.59375 C 16.445312 -25.707031 16.445312 -23.957031 15.84375 -22.34375 C 15.25 -20.726562 14.144531 -19.445312 12.53125 -18.5 C 12.40625 -18.425781 12.390625 -18.320312 12.484375 -18.1875 L 22.421875 -7.78125 C 22.503906 -7.695312 22.554688 -7.625 22.578125 -7.5625 C 22.648438 -7.320312 22.519531 -7.148438 22.1875 -7.046875 Z M -1.328125 -27.90625 C -1.460938 -27.863281 -1.507812 -27.78125 -1.46875 -27.65625 L 1.734375 -17.578125 C 1.773438 -17.441406 1.863281 -17.394531 2 -17.4375 L 9.453125 -19.8125 C 11.015625 -20.300781 12.125 -21.175781 12.78125 -22.4375 C 13.445312 -23.695312 13.53125 -25.109375 13.03125 -26.671875 C 12.539062 -28.222656 11.65625 -29.332031 10.375 -30 C 9.101562 -30.675781 7.6875 -30.769531 6.125 -30.28125 Z M -1.328125 -27.90625 "/></g></g></g><g fill="#1583d3" fill-opacity="1"><g transform="translate(250.314408, 325.45689)"><g><path d="M 7.546875 -35.140625 C 7.722656 -34.816406 7.644531 -34.566406 7.3125 -34.390625 L -6.28125 -27.1875 C -6.40625 -27.125 -6.4375 -27.03125 -6.375 -26.90625 L -1.53125 -17.765625 C -1.457031 -17.628906 -1.359375 -17.59375 -1.234375 -17.65625 L 8.25 -22.6875 C 8.570312 -22.863281 8.816406 -22.789062 8.984375 -22.46875 L 9.703125 -21.125 C 9.867188 -20.800781 9.789062 -20.550781 9.46875 -20.375 L -0.015625 -15.34375 C -0.140625 -15.28125 -0.164062 -15.1875 -0.09375 -15.0625 L 4.828125 -5.765625 C 4.890625 -5.640625 4.984375 -5.609375 5.109375 -5.671875 L 18.703125 -12.875 C 19.035156 -13.050781 19.289062 -12.984375 19.46875 -12.671875 L 20.1875 -11.3125 C 20.351562 -10.988281 20.269531 -10.738281 19.9375 -10.5625 L 3.984375 -2.109375 C 3.660156 -1.941406 3.414062 -2.019531 3.25 -2.34375 L -10.09375 -27.515625 C -10.269531 -27.835938 -10.195312 -28.082031 -9.875 -28.25 L 6.078125 -36.703125 C 6.410156 -36.878906 6.664062 -36.804688 6.84375 -36.484375 Z M -4.765625 -34.875 C -4.972656 -34.769531 -5.132812 -34.757812 -5.25 -34.84375 C -5.363281 -34.925781 -5.421875 -35.078125 -5.421875 -35.296875 L -5.34375 -40.28125 C -5.351562 -40.5625 -5.222656 -40.769531 -4.953125 -40.90625 L -3.34375 -41.765625 C -3.09375 -41.898438 -2.914062 -41.867188 -2.8125 -41.671875 C -2.75 -41.546875 -2.722656 -41.429688 -2.734375 -41.328125 L -3.078125 -36.21875 C -3.109375 -35.90625 -3.234375 -35.691406 -3.453125 -35.578125 Z M -4.765625 -34.875 "/></g></g></g><g fill="#1583d3" fill-opacity="1"><g transform="translate(275.393966, 311.866127)"><g><path d="M 10.40625 -7.75 C 8.863281 -6.53125 7.257812 -5.765625 5.59375 -5.453125 C 3.9375 -5.140625 2.347656 -5.28125 0.828125 -5.875 C -0.691406 -6.476562 -2.015625 -7.492188 -3.140625 -8.921875 L -10.359375 -18.09375 C -11.492188 -19.539062 -12.171875 -21.070312 -12.390625 -22.6875 C -12.609375 -24.300781 -12.367188 -25.875 -11.671875 -27.40625 C -10.972656 -28.9375 -9.851562 -30.3125 -8.3125 -31.53125 C -6.78125 -32.738281 -5.1875 -33.507812 -3.53125 -33.84375 C -1.875 -34.175781 -0.304688 -34.054688 1.171875 -33.484375 C 2.660156 -32.921875 3.9375 -31.96875 5 -30.625 L 5.265625 -30.28125 C 5.492188 -29.988281 5.460938 -29.726562 5.171875 -29.5 L 3.6875 -28.328125 C 3.394531 -28.097656 3.15625 -28.109375 2.96875 -28.359375 L 2.671875 -28.71875 C 1.503906 -30.207031 0.0664062 -31.03125 -1.640625 -31.1875 C -3.359375 -31.34375 -5.039062 -30.769531 -6.6875 -29.46875 C -8.320312 -28.1875 -9.265625 -26.675781 -9.515625 -24.9375 C -9.765625 -23.207031 -9.273438 -21.5625 -8.046875 -20 L -0.734375 -10.703125 C 0.484375 -9.160156 1.976562 -8.3125 3.75 -8.15625 C 5.519531 -8.007812 7.234375 -8.59375 8.890625 -9.90625 C 10.503906 -11.175781 11.441406 -12.628906 11.703125 -14.265625 C 11.972656 -15.898438 11.523438 -17.46875 10.359375 -18.96875 L 8 -21.9375 C 7.914062 -22.050781 7.820312 -22.066406 7.71875 -21.984375 L 2.96875 -18.25 C 2.675781 -18.019531 2.414062 -18.050781 2.1875 -18.34375 L 1.25 -19.53125 C 1.019531 -19.820312 1.050781 -20.082031 1.34375 -20.3125 L 8.171875 -25.6875 C 8.460938 -25.914062 8.722656 -25.882812 8.953125 -25.59375 L 12.25 -21.40625 C 14.113281 -19.039062 14.863281 -16.640625 14.5 -14.203125 C 14.144531 -11.773438 12.78125 -9.625 10.40625 -7.75 Z M 10.40625 -7.75 "/></g></g></g><g fill="#1583d3" fill-opacity="1"><g transform="translate(297.811278, 293.971615)"><g><path d="M 9.28125 -10.078125 C 7.976562 -8.597656 6.523438 -7.546875 4.921875 -6.921875 C 3.328125 -6.296875 1.71875 -6.128906 0.09375 -6.421875 C -1.53125 -6.722656 -3.054688 -7.492188 -4.484375 -8.734375 L -19.46875 -21.84375 C -19.75 -22.09375 -19.769531 -22.359375 -19.53125 -22.640625 L -18.265625 -24.078125 C -18.023438 -24.347656 -17.765625 -24.359375 -17.484375 -24.109375 L -2.4375 -10.953125 C -0.925781 -9.640625 0.722656 -9.054688 2.515625 -9.203125 C 4.316406 -9.347656 5.910156 -10.210938 7.296875 -11.796875 C 8.679688 -13.390625 9.328125 -15.085938 9.234375 -16.890625 C 9.148438 -18.703125 8.351562 -20.265625 6.84375 -21.578125 L -8.203125 -34.734375 C -8.484375 -34.984375 -8.503906 -35.242188 -8.265625 -35.515625 L -7 -36.953125 C -6.757812 -37.222656 -6.5 -37.234375 -6.21875 -36.984375 L 8.765625 -23.875 C 10.191406 -22.632812 11.164062 -21.234375 11.6875 -19.671875 C 12.207031 -18.117188 12.265625 -16.507812 11.859375 -14.84375 C 11.453125 -13.175781 10.59375 -11.585938 9.28125 -10.078125 Z M 9.28125 -10.078125 "/></g></g></g><g fill="#1583d3" fill-opacity="1"><g transform="translate(317.578683, 270.810633)"><g><path d="M 10.96875 -18.59375 C 10.8125 -18.332031 10.578125 -18.242188 10.265625 -18.328125 L 4.96875 -19.5 C 4.832031 -19.5 4.742188 -19.460938 4.703125 -19.390625 L -1.6875 -8.546875 C -1.738281 -8.460938 -1.722656 -8.375 -1.640625 -8.28125 L 1.953125 -4.25 C 2.179688 -4.007812 2.21875 -3.757812 2.0625 -3.5 L 1.03125 -1.75 C 0.925781 -1.582031 0.800781 -1.488281 0.65625 -1.46875 C 0.519531 -1.457031 0.382812 -1.523438 0.25 -1.671875 L -19.5625 -24.15625 C -19.789062 -24.382812 -19.828125 -24.628906 -19.671875 -24.890625 L -18.296875 -27.21875 C -18.128906 -27.488281 -17.890625 -27.582031 -17.578125 -27.5 L 11.6875 -21.078125 C 11.757812 -21.078125 11.832031 -21.054688 11.90625 -21.015625 C 12 -20.953125 12.054688 -20.851562 12.078125 -20.71875 C 12.097656 -20.59375 12.070312 -20.46875 12 -20.34375 Z M -3.65625 -10.546875 C -3.507812 -10.429688 -3.40625 -10.429688 -3.34375 -10.546875 L 2.1875 -19.921875 C 2.269531 -20.066406 2.21875 -20.148438 2.03125 -20.171875 L -15.625 -24.234375 C -15.75 -24.273438 -15.820312 -24.269531 -15.84375 -24.21875 C -15.875 -24.164062 -15.84375 -24.097656 -15.75 -24.015625 Z M -3.65625 -10.546875 "/></g></g></g><g fill="#1583d3" fill-opacity="1"><g transform="translate(331.04629, 246.740441)"><g/></g></g><g clip-path="url(#8266f9a3c7)"><g clip-path="url(#d202397153)"><g clip-path="url(#c23bcba240)"><path fill="#1583d3" d="M 275.902344 95.648438 C 273.617188 94.238281 270.621094 94.949219 269.210938 97.234375 L 164.8125 266.511719 C 163.402344 268.796875 164.109375 271.777344 166.394531 273.1875 L 203.554688 296.105469 C 205.839844 297.515625 208.820312 296.808594 210.230469 294.523438 L 314.636719 125.238281 C 316.042969 122.953125 315.339844 119.972656 313.054688 118.5625 Z M 171.488281 264.929688 L 183.875 272.570312 L 186.421875 268.441406 L 174.035156 260.800781 L 176.582031 256.671875 L 188.96875 264.3125 L 191.515625 260.183594 L 179.128906 252.542969 L 181.671875 248.414062 L 202.316406 261.144531 L 204.863281 257.015625 L 184.21875 244.285156 L 186.765625 240.15625 L 199.152344 247.796875 L 201.699219 243.667969 L 189.3125 236.027344 L 191.859375 231.898438 L 204.246094 239.539062 L 206.792969 235.410156 L 194.40625 227.769531 L 196.953125 223.640625 L 209.339844 231.28125 L 211.886719 227.152344 L 199.5 219.511719 L 202.046875 215.382812 L 222.691406 228.113281 L 225.234375 223.984375 L 204.589844 211.253906 L 207.136719 207.125 L 219.523438 214.765625 L 222.070312 210.636719 L 209.683594 202.996094 L 212.230469 198.867188 L 224.617188 206.507812 L 227.164062 202.378906 L 214.777344 194.738281 L 217.324219 190.609375 L 229.710938 198.25 L 232.257812 194.121094 L 219.871094 186.480469 L 222.417969 182.351562 L 243.0625 195.082031 L 245.609375 190.953125 L 224.964844 178.222656 L 227.511719 174.09375 L 239.898438 181.734375 L 242.441406 177.605469 L 230.054688 169.964844 L 232.601562 165.835938 L 244.988281 173.476562 L 247.535156 169.347656 L 235.148438 161.707031 L 237.695312 157.578125 L 250.082031 165.21875 L 252.628906 161.089844 L 240.242188 153.449219 L 242.789062 149.320312 L 263.433594 162.050781 L 265.980469 157.921875 L 245.335938 145.191406 L 247.882812 141.0625 L 260.269531 148.703125 L 262.816406 144.574219 L 250.429688 136.933594 L 252.976562 132.804688 L 265.363281 140.445312 L 267.90625 136.316406 L 255.519531 128.675781 L 258.066406 124.546875 L 270.453125 132.1875 L 273 128.058594 L 260.613281 120.417969 L 263.160156 116.289062 L 283.804688 129.019531 L 286.351562 124.890625 L 265.707031 112.160156 L 268.253906 108.03125 L 280.640625 115.671875 L 283.1875 111.542969 L 270.800781 103.902344 L 272.703125 100.8125 C 273.171875 100.054688 273.195312 99.679688 273.957031 100.148438 L 308.433594 121.414062 C 309.195312 121.882812 310.332031 122.972656 309.863281 123.730469 L 207.378906 289.902344 C 206.910156 290.664062 204.789062 291.167969 204.027344 290.699219 L 168.941406 269.058594 " fill-opacity="1" fill-rule="nonzero"/></g></g></g><g clip-path="url(#c0dbff1ee0)"><path fill="#1583d3" d="M 191.234375 100.910156 L 177.992188 100.910156 L 177.992188 87.671875 C 177.992188 82.402344 173.699219 78.109375 168.421875 78.109375 L 148.757812 78.109375 C 146.207031 78.109375 143.804688 79.105469 141.996094 80.914062 C 140.183594 82.722656 139.191406 85.125 139.191406 87.671875 L 139.191406 100.910156 L 125.949219 100.910156 C 120.675781 100.910156 116.382812 105.199219 116.382812 110.472656 L 116.382812 130.125 C 116.382812 135.398438 120.675781 139.6875 125.949219 139.6875 L 139.191406 139.6875 L 139.191406 152.921875 C 139.191406 158.195312 143.480469 162.484375 148.757812 162.484375 L 168.421875 162.484375 C 173.699219 162.484375 177.992188 158.191406 177.992188 152.917969 L 177.992188 139.683594 L 191.234375 139.683594 C 196.511719 139.683594 200.800781 135.394531 200.800781 130.121094 L 200.800781 110.46875 C 200.800781 105.195312 196.511719 100.910156 191.234375 100.910156 Z M 173.007812 132.210938 C 171.632812 132.210938 170.515625 133.328125 170.515625 134.703125 L 170.515625 152.917969 C 170.515625 154.070312 169.578125 155.007812 168.425781 155.007812 L 148.761719 155.007812 C 147.609375 155.007812 146.667969 154.070312 146.667969 152.917969 L 146.667969 134.703125 C 146.667969 133.328125 145.554688 132.210938 144.175781 132.210938 L 125.949219 132.210938 C 124.796875 132.210938 123.859375 131.273438 123.859375 130.121094 L 123.859375 110.46875 C 123.859375 109.316406 124.796875 108.378906 125.949219 108.378906 L 144.175781 108.378906 C 145.550781 108.378906 146.667969 107.265625 146.667969 105.890625 L 146.667969 87.671875 C 146.667969 86.519531 147.605469 85.582031 148.757812 85.582031 L 168.421875 85.582031 C 169.578125 85.582031 170.515625 86.523438 170.515625 87.671875 L 170.515625 105.890625 C 170.515625 107.265625 171.632812 108.378906 173.007812 108.378906 L 191.238281 108.378906 C 192.390625 108.378906 193.328125 109.316406 193.328125 110.46875 L 193.328125 130.121094 C 193.328125 131.273438 192.390625 132.210938 191.238281 132.210938 Z M 173.007812 132.210938 " fill-opacity="1" fill-rule="nonzero"/></g><g clip-path="url(#a4c87f9bd9)"><path fill="#1583d3" d="M 117.355469 153.578125 L 108.308594 153.578125 L 108.308594 144.539062 C 108.308594 139.578125 104.273438 135.546875 99.3125 135.546875 L 87.363281 135.546875 C 82.398438 135.546875 78.363281 139.578125 78.363281 144.539062 L 78.363281 153.578125 L 69.320312 153.578125 C 64.359375 153.578125 60.320312 157.613281 60.320312 162.570312 L 60.320312 174.515625 C 60.320312 179.472656 64.359375 183.507812 69.320312 183.507812 L 78.363281 183.507812 L 78.363281 192.546875 C 78.363281 197.507812 82.398438 201.539062 87.363281 201.539062 L 99.3125 201.539062 C 101.714844 201.539062 103.972656 200.605469 105.671875 198.902344 C 107.375 197.203125 108.308594 194.945312 108.308594 192.546875 L 108.308594 183.507812 L 117.355469 183.507812 C 122.316406 183.507812 126.351562 179.472656 126.351562 174.515625 L 126.351562 162.570312 C 126.351562 157.613281 122.316406 153.578125 117.355469 153.578125 Z M 100.832031 178.523438 L 100.832031 192.546875 C 100.832031 193.386719 100.152344 194.066406 99.3125 194.066406 L 87.363281 194.066406 C 86.523438 194.066406 85.839844 193.386719 85.839844 192.546875 L 85.839844 178.523438 C 85.839844 177.148438 84.722656 176.035156 83.347656 176.035156 L 69.320312 176.035156 C 68.480469 176.035156 67.796875 175.351562 67.796875 174.515625 L 67.796875 162.570312 C 67.796875 161.730469 68.480469 161.046875 69.320312 161.046875 L 83.347656 161.050781 C 84.722656 161.050781 85.839844 159.9375 85.839844 158.558594 L 85.839844 144.539062 C 85.839844 143.699219 86.523438 143.019531 87.363281 143.019531 L 99.3125 143.019531 C 100.152344 143.019531 100.832031 143.699219 100.832031 144.539062 L 100.832031 158.558594 C 100.832031 159.9375 101.949219 161.050781 103.324219 161.050781 L 117.355469 161.050781 C 118.191406 161.050781 118.875 161.730469 118.875 162.570312 L 118.875 174.511719 C 118.875 175.351562 118.191406 176.035156 117.355469 176.035156 L 103.324219 176.035156 C 101.949219 176.035156 100.832031 177.148438 100.832031 178.523438 Z M 100.832031 178.523438 " fill-opacity="1" fill-rule="nonzero"/></g><g clip-path="url(#0a7e26b8d5)"><path fill="#1583d3" d="M 167.757812 185.898438 L 165.015625 185.898438 L 165.015625 183.15625 C 165.015625 178.859375 161.519531 175.367188 157.222656 175.367188 L 147.925781 175.367188 C 143.628906 175.367188 140.132812 178.859375 140.132812 183.15625 L 140.132812 185.898438 L 137.390625 185.898438 C 133.09375 185.898438 129.597656 189.390625 129.597656 193.6875 L 129.597656 202.972656 C 129.597656 207.265625 133.09375 210.761719 137.390625 210.761719 L 140.132812 210.761719 L 140.132812 213.503906 C 140.132812 217.796875 143.628906 221.292969 147.925781 221.292969 L 157.222656 221.292969 C 161.519531 221.292969 165.015625 217.796875 165.015625 213.503906 L 165.015625 210.761719 L 167.757812 210.761719 C 172.054688 210.761719 175.550781 207.265625 175.550781 202.972656 L 175.550781 193.6875 C 175.550781 189.390625 172.054688 185.898438 167.757812 185.898438 Z M 160.03125 203.289062 C 158.65625 203.289062 157.539062 204.40625 157.539062 205.78125 L 157.539062 213.507812 C 157.539062 213.675781 157.394531 213.824219 157.222656 213.824219 L 147.933594 213.824219 C 147.761719 213.824219 147.613281 213.675781 147.613281 213.507812 L 147.613281 205.78125 C 147.613281 204.40625 146.5 203.289062 145.121094 203.289062 L 137.394531 203.289062 C 137.222656 203.289062 137.078125 203.144531 137.078125 202.972656 L 137.078125 193.691406 C 137.078125 193.519531 137.222656 193.375 137.394531 193.375 L 145.121094 193.375 C 146.5 193.375 147.613281 192.261719 147.613281 190.882812 L 147.613281 183.15625 C 147.613281 182.988281 147.761719 182.839844 147.933594 182.839844 L 157.222656 182.839844 C 157.394531 182.839844 157.539062 182.988281 157.539062 183.15625 L 157.539062 190.882812 C 157.539062 192.261719 158.65625 193.375 160.03125 193.375 L 167.757812 193.375 C 167.933594 193.375 168.078125 193.519531 168.078125 193.691406 L 168.078125 202.972656 C 168.078125 203.144531 167.933594 203.289062 167.757812 203.289062 Z M 160.03125 203.289062 " fill-opacity="1" fill-rule="nonzero"/></g></svg>